<?xml version="1.0" standalone="no"?>
<!DOCTYPE svg PUBLIC "-//W3C//DTD SVG 20010904//EN"
 "http://www.w3.org/TR/2001/REC-SVG-20010904/DTD/svg10.dtd">
<svg version="1.0" xmlns="http://www.w3.org/2000/svg"
 width="800.000000pt" height="800.000000pt" viewBox="0 0 800.000000 800.000000"
 preserveAspectRatio="xMidYMid meet">

<g transform="translate(0.000000,800.000000) scale(0.100000,-0.100000)"
fill="#000000" stroke="none">
<path d="M5165 6079 c-256 -41 -421 -91 -770 -237 -277 -115 -461 -173 -500
-158 -44 17 13 115 141 244 46 45 81 82 79 82 -16 0 -179 -71 -269 -118 -180
-91 -324 -191 -631 -436 -226 -180 -260 -198 -313 -160 -47 33 -20 141 73 289
l54 86 -39 -31 c-63 -50 -390 -376 -495 -495 -276 -310 -483 -597 -723 -1004
l-62 -104 148 145 c169 165 313 284 492 403 119 79 367 225 383 225 4 0 7 -27
7 -60 0 -82 25 -200 62 -287 87 -210 251 -365 464 -440 71 -24 93 -27 214 -28
145 0 210 14 324 72 260 131 427 413 426 716 -1 141 -43 309 -100 403 l-21 32
28 6 c113 23 628 56 886 56 119 0 137 -2 137 -16 0 -24 -153 -325 -231 -454
-301 -496 -656 -778 -1209 -961 l-115 -38 100 5 c480 24 979 141 1318 310 74
37 228 136 247 159 6 8 -38 0 -119 -21 -178 -46 -297 -61 -351 -45 -72 21 -69
74 6 106 17 7 101 34 185 60 206 63 324 107 444 167 239 120 403 275 506 481
46 91 56 93 -124 -20 -214 -135 -319 -177 -391 -159 -31 8 -41 40 -26 81 18
48 74 108 213 232 356 314 521 506 632 735 56 114 57 129 8 90 -182 -141 -426
-253 -660 -303 -128 -28 -303 -30 -387 -5 -72 21 -126 70 -126 113 0 67 97
171 233 251 42 24 77 46 77 48 0 9 -115 0 -225 -17z m-1265 -936 c20 -4 52
-25 81 -52 37 -37 49 -56 58 -98 16 -80 0 -144 -53 -198 -64 -66 -140 -81
-216 -42 -122 62 -156 223 -67 324 53 60 119 82 197 66z"/>
<path d="M2010 3443 c0 -4 21 -38 46 -75 l47 -68 -128 -312 c-70 -172 -129
-319 -132 -325 -4 -10 25 -13 124 -13 l129 0 23 70 22 71 142 -3 142 -3 24
-67 23 -68 130 0 c100 0 129 3 125 13 -2 6 -73 181 -157 387 -84 206 -155 381
-157 388 -4 9 -54 12 -204 12 -109 0 -199 -3 -199 -7z m309 -362 c17 -47 31
-88 31 -93 0 -4 -29 -8 -65 -8 -75 0 -76 1 -44 87 12 32 26 69 31 82 5 13 10
22 12 20 3 -2 18 -42 35 -88z"/>
<path d="M2837 3443 c-4 -3 -7 -183 -7 -400 l0 -393 125 0 125 0 2 176 3 177
135 -174 135 -174 108 -3 107 -3 -2 398 -3 398 -122 3 -123 3 0 -182 0 -181
-141 181 -140 181 -98 0 c-54 0 -101 -3 -104 -7z"/>
<path d="M3750 3050 l0 -400 125 0 125 0 0 400 0 400 -125 0 -125 0 0 -400z"/>
<path d="M4180 3050 l0 -400 115 0 115 0 2 171 3 170 76 -133 76 -133 58 0 58
0 76 138 76 137 3 -175 2 -175 115 0 115 0 0 400 0 400 -103 0 -103 0 -114
-210 c-63 -115 -118 -210 -121 -210 -3 0 -59 95 -124 210 l-119 210 -103 0
-103 0 0 -400z"/>
<path d="M5257 3443 c-4 -3 -7 -183 -7 -400 l0 -393 310 0 310 0 0 100 0 100
-185 0 -185 0 0 55 0 55 154 0 155 0 3 85 c2 47 2 90 0 95 -2 6 -66 10 -158
10 l-154 0 0 45 0 45 180 0 181 0 -3 103 -3 102 -296 3 c-162 1 -298 -1 -302
-5z"/>
<path d="M2005 2426 c-100 -47 -155 -134 -155 -247 0 -153 80 -253 224 -280
73 -13 147 1 210 41 66 42 67 53 10 111 -47 48 -48 48 -68 30 -59 -53 -123
-56 -171 -8 -61 61 -54 168 15 215 43 29 96 25 144 -11 l33 -26 48 49 49 50
-25 26 c-67 74 -214 97 -314 50z"/>
<path d="M2450 2176 l0 -264 80 -4 80 -3 0 98 0 97 80 0 80 0 0 -95 0 -95 85
0 85 0 0 265 0 265 -85 0 -85 0 0 -95 0 -95 -80 0 -80 0 0 95 0 95 -80 0 -80
0 0 -264z"/>
<path d="M3212 2388 c-11 -29 -59 -147 -106 -262 -47 -115 -84 -212 -82 -215
2 -3 40 -5 84 -3 l81 3 14 42 14 42 98 0 98 0 15 -42 14 -43 84 0 c46 0 84 3
84 6 0 3 -48 122 -106 265 l-106 259 -83 0 -82 0 -21 -52z m124 -180 c9 -29
19 -59 22 -65 3 -9 -9 -13 -42 -13 -25 0 -46 4 -46 9 0 11 42 121 46 121 1 0
10 -24 20 -52z"/>
<path d="M3700 2175 l0 -265 80 0 79 0 3 116 3 117 90 -117 c49 -64 92 -116
95 -116 42 -4 126 -2 128 3 1 4 2 124 2 267 l0 260 -80 0 -79 0 -3 -117 -3
-118 -90 117 -90 117 -67 1 -68 0 0 -265z"/>
<path d="M4320 2175 l0 -265 80 0 79 0 3 118 3 117 90 -117 90 -117 73 0 72
-1 0 265 0 265 -80 0 -79 0 -3 -122 -3 -122 -94 122 -94 122 -69 0 -68 0 0
-265z"/>
<path d="M4940 2175 l0 -265 208 0 207 0 -3 65 -4 65 -124 0 -124 0 0 35 0 35
110 0 110 0 0 65 0 64 -107 3 -108 3 0 30 0 30 123 3 122 3 0 64 0 65 -205 0
-205 0 0 -265z"/>
<path d="M5470 2175 l0 -265 195 0 195 0 0 65 0 65 -110 0 -110 0 0 200 0 200
-85 0 -85 0 0 -265z"/>
</g>
</svg>
