<?xml version="1.0" standalone="no"?>
<!DOCTYPE svg PUBLIC "-//W3C//DTD SVG 20010904//EN"
 "http://www.w3.org/TR/2001/REC-SVG-20010904/DTD/svg10.dtd">
<svg version="1.0" xmlns="http://www.w3.org/2000/svg"
 width="771.000000pt" height="189.000000pt" viewBox="0 0 771.000000 189.000000"
 preserveAspectRatio="xMidYMid meet">

<g transform="translate(0.000000,189.000000) scale(0.100000,-0.100000)"
fill="#000000" stroke="none">
<path d="M6850 1840 c-14 -4 -47 -8 -74 -9 -26 -1 -69 -8 -95 -16 -25 -8 -73
-21 -106 -30 -33 -9 -73 -22 -88 -30 -16 -8 -35 -15 -42 -15 -7 0 -35 -11 -62
-24 -26 -14 -61 -28 -78 -32 -16 -4 -36 -13 -43 -21 -7 -7 -23 -13 -34 -13
-11 0 -32 -6 -46 -14 -61 -33 -196 -64 -206 -48 -7 12 32 92 44 92 5 0 17 14
27 30 9 17 23 30 30 30 7 0 13 7 13 15 0 8 6 15 14 15 8 0 17 4 20 9 6 10 -70
-11 -100 -27 -11 -6 -26 -13 -34 -16 -8 -4 -31 -16 -50 -27 -19 -12 -53 -31
-75 -42 -22 -12 -49 -30 -59 -39 -11 -10 -24 -18 -28 -18 -5 0 -18 -9 -30 -20
-12 -11 -40 -32 -62 -47 -23 -15 -50 -37 -61 -48 -11 -12 -28 -24 -38 -28 -9
-3 -17 -11 -17 -17 0 -5 -5 -10 -11 -10 -6 0 -33 -19 -59 -42 -103 -90 -152
-98 -158 -25 -3 36 15 85 58 155 11 17 17 32 14 32 -3 0 -27 -21 -54 -47 -26
-27 -79 -78 -117 -115 -37 -36 -97 -99 -133 -139 -36 -39 -73 -79 -82 -88 -10
-8 -18 -18 -18 -22 0 -7 -37 -53 -72 -90 -10 -11 -18 -23 -18 -29 0 -5 -3 -10
-7 -10 -5 0 -21 -20 -38 -45 -16 -24 -33 -45 -37 -45 -5 0 -8 -6 -8 -13 0 -8
-9 -22 -20 -32 -11 -10 -20 -22 -20 -27 0 -5 -11 -21 -25 -36 -14 -15 -25 -32
-25 -38 0 -6 -9 -21 -20 -34 -11 -13 -20 -28 -20 -34 0 -6 -11 -23 -25 -38
-14 -15 -25 -34 -25 -42 0 -8 -4 -17 -9 -21 -9 -5 -41 -62 -41 -73 0 -2 33 30
74 72 41 42 77 76 79 76 3 0 25 19 50 43 25 23 71 60 101 81 31 22 56 43 56
48 0 4 9 8 20 8 10 0 23 6 27 13 4 6 24 20 43 31 19 10 40 24 45 30 11 12 135
76 148 76 4 0 7 -23 7 -50 0 -57 27 -167 47 -191 7 -8 13 -22 13 -30 0 -16 88
-122 126 -152 135 -105 343 -125 496 -45 130 68 233 212 259 365 17 103 -1
235 -43 320 l-26 51 76 7 c42 3 118 10 169 16 142 14 423 12 423 -4 0 -7 -9
-29 -20 -50 -11 -20 -20 -43 -20 -51 0 -8 -6 -21 -13 -28 -6 -7 -21 -31 -32
-53 -11 -22 -26 -46 -32 -53 -7 -7 -13 -17 -13 -22 0 -13 -130 -203 -156 -227
-13 -12 -24 -25 -24 -28 0 -9 -100 -105 -110 -105 -6 0 -10 -7 -10 -15 0 -8
-5 -15 -11 -15 -6 0 -26 -12 -44 -27 -54 -46 -69 -57 -95 -71 -14 -6 -47 -26
-75 -42 -57 -34 -53 -32 -160 -72 -137 -51 -138 -53 -59 -56 63 -3 207 16 295
39 20 5 47 9 60 9 13 1 42 8 64 16 22 8 60 19 85 24 103 20 333 118 379 161
11 11 24 19 29 19 5 0 16 7 23 16 13 15 11 16 -16 12 -17 -3 -43 -10 -60 -16
-64 -22 -185 -34 -216 -21 -60 24 -19 60 118 100 37 11 84 24 103 28 19 5 53
18 76 29 22 11 52 24 67 27 14 4 31 13 38 21 6 8 19 14 28 14 9 0 27 9 41 20
14 11 28 20 32 20 18 0 168 143 168 159 0 6 5 11 10 11 6 0 15 10 20 23 6 12
18 36 28 52 10 17 21 38 25 48 6 16 5 16 -21 0 -15 -10 -29 -20 -32 -23 -7 -7
-42 -29 -60 -37 -8 -3 -33 -19 -56 -34 -22 -15 -53 -31 -67 -35 -15 -3 -27
-10 -27 -15 0 -16 -97 -11 -104 6 -11 29 24 81 99 150 98 89 304 292 330 326
41 52 65 88 65 98 0 5 4 11 9 13 9 3 73 139 68 144 -2 2 -19 -10 -38 -26 -19
-16 -37 -29 -42 -30 -4 0 -26 -13 -49 -30 -22 -16 -47 -30 -53 -30 -7 0 -18
-7 -25 -15 -7 -8 -19 -15 -27 -15 -8 0 -29 -6 -46 -14 -44 -20 -128 -43 -220
-61 -92 -18 -155 -12 -218 19 -40 20 -44 26 -47 62 -2 32 3 45 30 74 35 38
120 100 137 100 5 0 13 5 16 10 7 12 -48 12 -85 0z m-820 -628 c14 -11 33 -39
44 -64 18 -44 18 -45 -2 -90 -25 -52 -34 -61 -85 -78 -80 -25 -157 40 -157
133 0 48 34 97 81 116 32 14 88 6 119 -17z"/>
<path d="M390 1613 c0 -4 21 -38 46 -75 l47 -68 -128 -312 c-70 -172 -129
-319 -132 -325 -4 -10 25 -13 124 -13 l129 0 23 70 22 71 142 -3 142 -3 24
-67 23 -68 130 0 c100 0 129 3 125 13 -2 6 -73 181 -157 387 -84 206 -155 381
-157 388 -4 9 -54 12 -204 12 -109 0 -199 -3 -199 -7z m309 -362 c17 -47 31
-88 31 -93 0 -4 -29 -8 -65 -8 -75 0 -76 1 -44 87 12 32 26 69 31 82 5 13 10
22 12 20 3 -2 18 -42 35 -88z"/>
<path d="M1217 1613 c-4 -3 -7 -183 -7 -400 l0 -393 125 0 125 0 2 176 3 177
135 -174 135 -174 108 -3 107 -3 -2 398 -3 398 -122 3 -123 3 0 -182 0 -181
-141 181 -140 181 -98 0 c-54 0 -101 -3 -104 -7z"/>
<path d="M2130 1220 l0 -400 125 0 125 0 0 400 0 400 -125 0 -125 0 0 -400z"/>
<path d="M2560 1220 l0 -400 115 0 115 0 2 171 3 170 76 -133 76 -133 58 0 58
0 76 138 76 137 3 -175 2 -175 115 0 115 0 0 400 0 400 -103 0 -103 0 -114
-210 c-63 -115 -118 -210 -121 -210 -3 0 -59 95 -124 210 l-119 210 -103 0
-103 0 0 -400z"/>
<path d="M3637 1613 c-4 -3 -7 -183 -7 -400 l0 -393 310 0 310 0 0 100 0 100
-185 0 -185 0 0 55 0 55 154 0 155 0 3 85 c2 47 2 90 0 95 -2 6 -66 10 -158
10 l-154 0 0 45 0 45 180 0 181 0 -3 103 -3 102 -296 3 c-162 1 -298 -1 -302
-5z"/>
<path d="M905 736 c-100 -47 -155 -134 -155 -247 0 -153 80 -253 224 -280 73
-13 147 1 210 41 66 42 67 53 10 111 -47 48 -48 48 -68 30 -59 -53 -123 -56
-171 -8 -61 61 -54 168 15 215 43 29 96 25 144 -11 l33 -26 48 49 49 50 -25
26 c-67 74 -214 97 -314 50z"/>
<path d="M1350 486 l0 -264 80 -4 80 -3 0 98 0 97 80 0 80 0 0 -95 0 -95 85 0
85 0 0 265 0 265 -85 0 -85 0 0 -95 0 -95 -80 0 -80 0 0 95 0 95 -80 0 -80 0
0 -264z"/>
<path d="M2112 698 c-11 -29 -59 -147 -106 -262 -47 -115 -84 -212 -82 -215 2
-3 40 -5 84 -3 l81 3 14 42 14 42 98 0 98 0 15 -42 14 -43 84 0 c46 0 84 3 84
6 0 3 -48 122 -106 265 l-106 259 -83 0 -82 0 -21 -52z m124 -180 c9 -29 19
-59 22 -65 3 -9 -9 -13 -42 -13 -25 0 -46 4 -46 9 0 11 42 121 46 121 1 0 10
-24 20 -52z"/>
<path d="M2600 485 l0 -265 80 0 79 0 3 116 3 117 90 -117 c49 -64 92 -116 95
-116 42 -4 126 -2 128 3 1 4 2 124 2 267 l0 260 -80 0 -79 0 -3 -117 -3 -118
-90 117 -90 117 -67 1 -68 0 0 -265z"/>
<path d="M3220 485 l0 -265 80 0 79 0 3 118 3 117 90 -117 90 -117 73 0 72 -1
0 265 0 265 -80 0 -79 0 -3 -122 -3 -122 -94 122 -94 122 -69 0 -68 0 0 -265z"/>
<path d="M3840 485 l0 -265 208 0 207 0 -3 65 -4 65 -124 0 -124 0 0 35 0 35
110 0 110 0 0 65 0 64 -107 3 -108 3 0 30 0 30 123 3 122 3 0 64 0 65 -205 0
-205 0 0 -265z"/>
<path d="M4370 485 l0 -265 195 0 195 0 0 65 0 65 -110 0 -110 0 0 200 0 200
-85 0 -85 0 0 -265z"/>
</g>
</svg>
