<?xml version="1.0" standalone="no"?>
<!DOCTYPE svg PUBLIC "-//W3C//DTD SVG 20010904//EN"
 "http://www.w3.org/TR/2001/REC-SVG-20010904/DTD/svg10.dtd">
<svg version="1.0" xmlns="http://www.w3.org/2000/svg"
 width="458.000000pt" height="189.000000pt" viewBox="0 0 458.000000 189.000000"
 preserveAspectRatio="xMidYMid meet">

<g transform="translate(0.000000,189.000000) scale(0.100000,-0.100000)"
fill="#000000" stroke="none">
<path d="M290 1613 c0 -4 25 -32 55 -63 l55 -56 -80 -271 c-44 -149 -80 -274
-80 -277 0 -3 56 -6 125 -6 l124 0 13 60 12 60 138 0 138 0 37 -60 38 -60 122
0 c68 0 123 3 123 6 0 4 -42 70 -93 148 -51 77 -138 210 -192 294 -55 84 -112
171 -128 193 l-27 39 -190 0 c-105 0 -190 -3 -190 -7z m358 -307 c23 -40 42
-76 42 -79 0 -4 -30 -7 -66 -7 l-67 0 7 43 c10 62 26 117 34 117 4 0 26 -33
50 -74z"/>
<path d="M1100 1595 c0 -14 102 -576 115 -632 5 -22 9 -23 125 -23 120 0 120
0 115 23 -14 60 -51 267 -47 267 7 0 55 -40 112 -93 30 -29 90 -85 133 -124
l77 -73 100 0 c74 0 100 3 99 13 0 6 -28 156 -62 332 l-63 320 -117 3 c-64 1
-117 0 -117 -4 0 -4 12 -68 26 -142 14 -73 23 -136 20 -139 -2 -3 -65 51 -138
119 -73 68 -144 134 -157 146 -22 20 -36 22 -123 22 -82 0 -98 -3 -98 -15z"/>
<path d="M1994 1548 c7 -35 36 -186 66 -335 l53 -273 119 0 c90 0 118 3 118
13 0 12 -112 579 -125 635 -5 21 -9 22 -124 22 l-119 0 12 -62z"/>
<path d="M2400 1600 c0 -5 29 -152 65 -327 36 -175 65 -321 65 -325 0 -5 50
-8 111 -8 110 0 111 0 106 23 -19 80 -48 239 -45 248 2 6 45 -39 97 -100 l93
-111 56 0 57 0 29 73 c45 111 67 159 72 155 2 -2 15 -58 29 -124 14 -65 27
-129 30 -141 5 -22 10 -23 114 -23 l108 0 -8 43 c-18 92 -130 611 -132 613 -8
8 -188 7 -195 -1 -5 -6 -40 -83 -78 -172 -38 -90 -72 -163 -76 -163 -4 0 -74
79 -155 175 l-148 174 -97 1 c-56 0 -98 -4 -98 -10z"/>
<path d="M3432 1578 c2 -13 33 -161 69 -329 l64 -306 288 -8 c159 -4 291 -5
293 -2 3 3 -2 41 -12 86 l-17 81 -174 0 -173 0 -10 26 c-6 14 -10 34 -10 45 0
18 8 19 145 19 109 0 145 3 145 13 0 10 -8 50 -25 124 -5 22 -10 23 -153 25
l-147 3 -11 35 -12 35 170 3 170 2 -5 23 c-3 12 -11 50 -18 85 l-12 62 -284 0
-285 0 4 -22z"/>
<path d="M462 756 c-95 -31 -142 -94 -142 -188 1 -111 56 -192 165 -244 59
-29 80 -34 141 -34 39 0 86 5 105 11 42 14 99 56 99 72 0 7 -23 28 -51 49
l-51 36 -35 -24 c-66 -44 -153 -24 -191 45 -29 52 -28 102 2 138 21 24 32 28
74 27 33 0 61 -8 86 -24 l38 -23 41 41 c40 40 41 42 22 57 -81 61 -217 89
-303 61z"/>
<path d="M880 747 c0 -13 65 -379 75 -424 5 -21 11 -23 82 -23 l76 0 -6 43
c-3 23 -9 61 -13 85 l-7 42 80 0 80 0 13 -72 c7 -40 15 -79 17 -85 4 -9 30
-13 85 -13 71 0 79 2 74 18 -3 9 -21 105 -41 212 -20 107 -39 203 -41 213 -5
14 -18 17 -81 17 l-76 0 6 -47 c4 -27 9 -65 13 -85 l7 -38 -76 0 c-42 0 -78 4
-82 9 -3 6 -10 36 -16 68 -17 99 -11 93 -95 93 -54 0 -74 -3 -74 -13z"/>
<path d="M1641 733 c-6 -16 -15 -46 -20 -68 -5 -22 -29 -113 -54 -202 l-44
-163 79 0 c54 0 80 4 82 12 3 7 7 25 10 41 l6 27 95 0 95 0 25 -40 25 -40 81
0 c61 0 78 3 73 12 -4 7 -72 111 -150 231 l-143 217 -74 0 c-72 0 -75 -1 -86
-27z m153 -187 c14 -25 26 -47 26 -50 0 -3 -21 -6 -46 -6 l-46 0 7 48 c11 77
18 78 59 8z"/>
<path d="M2107 753 c-4 -7 59 -353 78 -430 5 -21 11 -23 81 -23 l76 0 -6 28
c-20 92 -33 172 -27 172 7 0 48 -36 148 -130 l74 -70 65 0 c62 0 64 1 59 23
-3 12 -23 112 -45 221 -22 110 -46 203 -53 208 -18 11 -125 10 -132 -2 -3 -6
1 -46 10 -90 9 -45 15 -86 13 -92 -2 -6 -53 34 -114 90 l-109 102 -57 0 c-31
0 -59 -3 -61 -7z"/>
<path d="M2710 743 c1 -10 20 -112 43 -228 l43 -210 72 -3 c84 -3 81 -9 56
113 -9 42 -13 79 -10 83 4 3 25 -12 49 -34 191 -179 169 -164 236 -164 51 0
61 3 61 17 0 33 -83 418 -92 431 -11 13 -66 16 -115 6 l-30 -6 19 -90 c11 -49
17 -93 14 -96 -6 -6 -18 4 -153 131 l-71 67 -61 0 c-52 0 -61 -3 -61 -17z"/>
<path d="M3314 747 c-4 -11 65 -369 82 -429 5 -16 22 -18 177 -18 212 0 220 2
212 44 -14 70 -6 66 -129 66 -119 0 -136 6 -136 47 0 22 2 23 101 23 91 0 100
2 95 18 -2 9 -7 32 -11 50 l-7 32 -93 0 c-98 0 -130 13 -123 49 3 13 21 16
116 19 l113 3 -6 32 c-13 67 -9 64 -107 71 -155 11 -278 8 -284 -7z"/>
<path d="M3820 738 c0 -29 84 -414 93 -425 7 -10 54 -13 172 -13 90 0 170 3
178 6 12 4 13 13 3 57 l-11 52 -108 3 c-101 3 -107 4 -112 25 -10 42 -65 301
-65 304 0 2 -34 3 -75 3 -53 0 -75 -4 -75 -12z"/>
</g>
</svg>
